# xmcd CD database file
#
# Track frame offsets:
#	150
#	22130
#	42147
#	61997
#	81690
#	100627
#	119540
#	138512
#	159137
#	181547
#	203600
#	224440
#
# Disc length: 3233 seconds
#
# Revision: 0
# Processed by: cddbd v1.5.2PL0 Copyright (c) Steve Scherf et al.
# Submitted via: CDex 1.50
#
DISCID=a00c9f0c
DTITLE=Various Artist - El Merengon
DYEAR=1995
DGENRE=Merengue
TTITLE0=El venao
TTITLE1=Penelope
TTITLE2=Anja! Juan
TTITLE3=Pero que necesidad
TTITLE4=Ritmo loco
TTITLE5=El virao
TTITLE6=Las mujeres
TTITLE7=Sin truco
TTITLE8=Las mujeres modernas
TTITLE9=Mi pana
TTITLE10=Volvere
TTITLE11=El celoso
EXTD=YEAR: 1995
EXTT0=
EXTT1=
EXTT2=
EXTT3=
EXTT4=
EXTT5=
EXTT6=
EXTT7=
EXTT8=
EXTT9=
EXTT10=
EXTT11=
PLAYORDER=
